<svg  width="38.501" height="42" viewBox="0 0 38.501 42">
  <path id="iconmonstr-idea-7" d="M26.4,42H6.024c.913-5.311,1.57-10.783-.738-14.049A21.411,21.411,0,0,1,1,15.906C.922,6.823,8.4-.044,18.855,0c12.663.052,16.324,10.773,17.1,13.9.595,2.4-1.571,3.271-.291,4.728,1.043,1.188,1.811,2.387,3.131,3.81a2.375,2.375,0,0,1,.7,1.65,1.814,1.814,0,0,1-1.309,1.676c-.751.262-1.33.56-2.126.775a46.4,46.4,0,0,1-1.4,6.225c-1.29,4.585-5.068,1.853-6.792,4.562A15.611,15.611,0,0,0,26.4,42ZM18.892,27.447a.824.824,0,0,0,.537-.191l1.039-.684H16.531l1.039.684a.816.816,0,0,0,.539.191h.782Zm1.613-1.75a.437.437,0,0,0,0-.875H16.517a.437.437,0,0,0,0,.875Zm.432-1.75c0-3.505,2.812-4.952,2.812-8.074a5.025,5.025,0,0,0-5.252-5.05,5.02,5.02,0,0,0-5.248,5.05c0,3.122,2.812,4.618,2.812,8.074Zm4.335-6.326,2.361,1.071-.723,1.594-2.273-1.029a8.474,8.474,0,0,0,.635-1.636Zm-13.543,0a8.3,8.3,0,0,0,.63,1.636l-2.268,1.029-.724-1.594Zm16.4-1.549v-1.75H25.336a7.084,7.084,0,0,1,.163,1.75Zm-16.621,0v-.005a7.133,7.133,0,0,1,.161-1.745H8.875v1.75Zm12.285-4.749,2.173-1.543,1.013,1.428-2.191,1.554a6.4,6.4,0,0,0-1-1.438Zm-10.577,0a6.437,6.437,0,0,0-1,1.44l-2.189-1.554,1.011-1.428Zm7.761-1.83,1.16-2.354,1.57.775-1.162,2.354a7.11,7.11,0,0,0-1.568-.775Zm-4.945,0a7.115,7.115,0,0,0-1.57.773L13.3,7.912l1.57-.775Zm3.348-.364a7.408,7.408,0,0,0-1.75,0V6.447h1.75Z" transform="translate(-1 0)" fill-rule="evenodd"/>
</svg>
